<?xml version="1.0" encoding="UTF-8" standalone="no"?>
<svg width="720px" height="218px" viewBox="0 0 720 218" version="1.1" xmlns="http://www.w3.org/2000/svg" xmlns:xlink="http://www.w3.org/1999/xlink" xmlns:sketch="http://www.bohemiancoding.com/sketch/ns">
    <!-- Generator: Sketch 3.2.2 (9983) - http://www.bohemiancoding.com/sketch -->
    <title>logo</title>
    <desc>Created with Sketch.</desc>
    <defs>
        <rect id="path-1" x="0" y="0" width="158.75" height="56.3793103"></rect>
    </defs>
    <g id="Page-1" stroke="none" stroke-width="1" fill="none" fill-rule="evenodd" sketch:type="MSPage">
        <g id="Logo-2" sketch:type="MSArtboardGroup" transform="translate(-27.000000, -42.000000)">
            <g id="Anchorage.io" sketch:type="MSLayerGroup" transform="translate(33.000000, 62.000000)">
                <g id="Group" transform="translate(225.750000, 37.885057)">
                    <g id="Oval-1" transform="translate(0.000000, 102.735632)">
                        <mask id="mask-2" sketch:name="Mask" fill="white">
                            <use xlink:href="#path-1"></use>
                        </mask>
                        <use id="Mask" sketch:type="MSShapeGroup" xlink:href="#path-1"></use>
                        <path d="M7.5,-28.816092 C7.5,10.6246569 39.3997116,42.5977011 78.75,42.5977011 C118.100288,42.5977011 150,10.6246569 150,-28.816092" stroke="#EDF6FB" stroke-width="18.75" sketch:type="MSShapeGroup" mask="url(#mask-2)"></path>
                    </g>
                    <rect id="Rectangle-1" fill="#EDF6FB" sketch:type="MSShapeGroup" x="68.75" y="56.3793103" width="21.25" height="91.4597701" rx="50"></rect>
                    <path d="M58.7449684,91.875 C52.8797218,91.875 48.125,87.1193157 48.125,81.25 L48.125,81.25 C48.125,75.3819745 52.8739566,70.625 58.7449684,70.625 L100.005032,70.625 C105.870278,70.625 110.625,75.3806843 110.625,81.25 L110.625,81.25 C110.625,87.1180255 105.876043,91.875 100.005032,91.875 L58.7449684,91.875 L58.7449684,91.875 Z" id="Rectangle-3" fill="#EDF6FB" sketch:type="MSShapeGroup"></path>
                    <ellipse id="Oval-1" stroke="#EDF6FB" stroke-width="18.75" sketch:type="MSShapeGroup" cx="79.375" cy="28.1896552" rx="28.125" ry="28.1896552"></ellipse>
                    <path d="M16.4271693,79.5574713 C24.2202428,79.5574713 35.8345796,100.43464 32.0133164,107.215596 C28.1920531,113.996552 4.95470548,114.515461 0.84102215,107.215596 C-3.27266118,99.9157313 8.63409571,79.5574713 16.4271693,79.5574713 Z" id="Triangle-1" fill="#EDF6FB" sketch:type="MSShapeGroup"></path>
                    <path d="M141.162802,79.5574713 C148.955876,79.5574713 160.570213,100.43464 156.748949,107.215596 C152.927686,113.996552 129.690339,114.515461 125.576655,107.215596 C121.462972,99.9157313 133.369729,79.5574713 141.162802,79.5574713 Z" id="Triangle-2" fill="#EDF6FB" sketch:type="MSShapeGroup"></path>
                </g>
                <path d="M35.6859504,87.6371901 C33.3564622,90.2994623 30.8398207,92.4209287 28.1359504,94.0016529 C25.4320801,95.582377 22.2082832,96.3727273 18.4644628,96.3727273 C12.9735263,96.3727273 8.64739873,94.7504294 5.48595041,91.5057851 C2.3245021,88.2611408 0.743801653,83.8518185 0.743801653,78.277686 C0.743801653,73.8682975 1.92932699,70.3117215 4.30041322,67.6078512 C6.67149946,64.903981 9.62491345,62.8033133 13.1607438,61.3057851 C16.6965742,59.808257 20.5027344,58.7475238 24.5793388,58.1235537 C28.6559432,57.4995837 32.3997075,57.0212138 35.8107438,56.6884298 C35.7275478,56.6884298 35.7067491,56.2932546 35.7483471,55.5028926 C35.7899451,54.7125305 35.8107438,53.8597842 35.8107438,52.9446281 L35.8107438,49.2008264 C35.8107438,47.7032983 35.4571661,46.3305848 34.75,45.0826446 C34.0428339,43.8347045 33.1276916,42.7323739 32.0045455,41.7756198 C30.8813993,40.8188657 29.5918806,40.0701129 28.1359504,39.5293388 C26.6800203,38.9885648 25.2033133,38.7181818 23.7057851,38.7181818 C21.0435129,38.7181818 18.6932609,38.9261687 16.6549587,39.3421488 C14.6166565,39.7581288 12.5159888,40.7148685 10.3528926,42.2123967 L5.86033058,52.9446281 L2.61570248,52.9446281 L2.61570248,38.7181818 L2.74049587,38.7181818 C4.65400406,37.3038497 6.4426914,36.0975257 8.10661157,35.0991736 C9.77053174,34.1008215 11.496823,33.2896725 13.2855372,32.6657025 C15.0742514,32.0417324 16.9877309,31.5841612 19.0260331,31.2929752 C21.0643353,31.0017892 23.4145872,30.8561983 26.0768595,30.8561983 C28.5727398,30.8561983 31.0061865,31.2513735 33.3772727,32.0417355 C35.748359,32.8320976 37.8490267,33.9552269 39.6793388,35.411157 C41.509651,36.8670872 42.9655593,38.6141771 44.0471074,40.6524793 C45.1286555,42.6907815 45.6278241,44.9162414 45.5446281,47.3289256 L45.5446281,85.0165289 L55.9024793,88.3859504 L55.9024793,91.2561983 L35.6859504,96.4975207 L35.6859504,87.6371901 Z M35.6859504,63.4272727 C33.1068742,63.5936647 30.3614471,63.8640477 27.4495868,64.2384298 C24.5377265,64.6128118 21.8546955,65.2991686 19.4004132,66.2975207 C16.946131,67.2958728 14.9078594,68.7309824 13.2855372,70.6028926 C11.663215,72.4748027 10.8520661,74.9914442 10.8520661,78.1528926 C10.8520661,81.6471249 11.7880072,84.3301559 13.6599174,86.2020661 C15.5318275,88.0739763 18.1732612,89.0099174 21.5842975,89.0099174 C23.0818257,89.0099174 24.4961366,88.7395344 25.8272727,88.1987603 C27.1584089,87.6579863 28.4063303,86.9716295 29.5710744,86.1396694 C30.7358185,85.3077093 31.8173504,84.3509696 32.8157025,83.2694215 C33.8140546,82.1878734 34.7707943,81.1063415 35.6859504,80.0247934 L35.6859504,63.4272727 Z M59.7710744,35.9727273 L81.8595041,30.8561983 L81.8595041,42.2123967 C84.2721884,39.3005364 87.1216089,36.7838949 90.4078512,34.6623967 C93.6940936,32.5408985 97.2090722,31.4801653 100.952893,31.4801653 C107.275789,31.4801653 112.246676,32.9152749 115.865702,35.7855372 C119.484729,38.6557995 121.252617,43.25231 121.169421,49.5752066 L121.169421,87.1380165 L132.15124,91.7553719 L132.15124,95 L100.328926,95 L100.328926,91.7553719 L110.686777,87.1380165 L110.686777,49.9495868 C110.686777,47.9528826 110.291602,46.3305848 109.50124,45.0826446 C108.710878,43.8347045 107.754138,42.8571661 106.630992,42.15 C105.507846,41.4428339 104.280723,40.9644641 102.949587,40.714876 C101.618451,40.465288 100.412127,40.3404959 99.3305785,40.3404959 C97.3338743,40.3404959 95.5243883,40.6940736 93.9020661,41.4012397 C92.279744,42.1084057 90.7822383,43.0235481 89.4095041,44.1466942 C88.03677,45.2698403 86.7264525,46.5385604 85.4785124,47.9528926 C84.2305723,49.3672247 83.0242482,50.7815356 81.8595041,52.1958678 L81.8595041,87.1380165 L91.5933884,91.7553719 L91.5933884,95 L60.3950413,95 L60.3950413,91.7553719 L71.3768595,87.1380165 L71.3768595,42.2123967 L59.7710744,38.8429752 L59.7710744,35.9727273 Z M187.185124,53.0694215 L183.940496,53.0694215 L179.32314,42.2123967 C177.409632,41.0476526 175.454555,40.2365037 173.457851,39.7789256 C171.461147,39.3213476 169.464473,39.092562 167.467769,39.092562 C164.223124,39.092562 161.415301,39.8413148 159.044215,41.338843 C156.673129,42.8363711 154.718052,44.791448 153.178926,47.2041322 C151.639799,49.6168165 150.495872,52.3414449 149.747107,55.3780992 C148.998343,58.4147535 148.623967,61.5137583 148.623967,64.6752066 C148.623967,67.5870669 149.039941,70.4572861 149.871901,73.2859504 C150.703861,76.1146147 151.951782,78.6520549 153.615702,80.8983471 C155.279623,83.1446393 157.338693,84.9749241 159.792975,86.3892562 C162.247257,87.8035883 165.096678,88.5107438 168.341322,88.5107438 C171.253183,88.5107438 173.811421,87.9283805 176.016116,86.7636364 C178.22081,85.5988922 180.363075,83.934997 182.442975,81.7719008 L188.308264,87.0132231 C185.89558,89.5922994 182.962965,91.7969605 179.510331,93.6272727 C176.057696,95.4575849 171.793965,96.3727273 166.719008,96.3727273 C161.06168,96.3727273 156.361176,95.3327928 152.617355,93.2528926 C148.873535,91.1729924 145.899322,88.5523574 143.694628,85.3909091 C141.489934,82.2294608 139.950831,78.7976769 139.077273,75.0954545 C138.203715,71.3932322 137.766942,67.9198509 137.766942,64.6752066 C137.766942,60.4322102 138.453299,56.3348682 139.826033,52.3830579 C141.198767,48.4312475 143.174643,44.8954701 145.753719,41.7756198 C148.332795,38.6557695 151.411001,36.1599267 154.98843,34.2880165 C158.565858,32.4161063 162.559207,31.4801653 166.968595,31.4801653 C170.213239,31.4801653 173.457835,31.8129443 176.702479,32.4785124 C179.947124,33.1440805 183.441304,34.9743652 187.185124,37.9694215 L187.185124,53.0694215 Z M194.547934,6.02231405 L216.636364,0.905785124 L216.636364,42.2123967 C219.049048,39.3005364 221.919267,36.7838949 225.247107,34.6623967 C228.574948,32.5408985 232.110725,31.4801653 235.854545,31.4801653 C242.177442,31.4801653 247.12753,32.9152749 250.704959,35.7855372 C254.282387,38.6557995 256.029477,43.25231 255.946281,49.5752066 L255.946281,87.1380165 L266.928099,91.7553719 L266.928099,95 L235.105785,95 L235.105785,91.7553719 L245.463636,87.1380165 L245.463636,49.9495868 C245.463636,47.9528826 245.08926,46.3305848 244.340496,45.0826446 C243.591732,43.8347045 242.655791,42.8571661 241.532645,42.15 C240.409499,41.4428339 239.182376,40.9644641 237.85124,40.714876 C236.520104,40.465288 235.31378,40.3404959 234.232231,40.3404959 C232.235527,40.3404959 230.426041,40.6940736 228.803719,41.4012397 C227.181397,42.1084057 225.663092,43.0235481 224.24876,44.1466942 C222.834428,45.2698403 221.503312,46.5385604 220.255372,47.9528926 C219.007432,49.3672247 217.801108,50.7815356 216.636364,52.1958678 L216.636364,87.1380165 L226.370248,91.7553719 L226.370248,95 L195.171901,95 L195.171901,91.7553719 L206.153719,87.1380165 L206.153719,12.2619835 L194.547934,8.89256198 L194.547934,6.02231405 Z M361.271901,43.7099174 C362.187057,42.1291932 363.268589,40.5900901 364.516529,39.092562 C365.764469,37.5950338 367.137183,36.2847164 368.634711,35.1615702 C370.132239,34.0384241 371.733738,33.1440805 373.439256,32.4785124 C375.144774,31.8129443 376.912663,31.4801653 378.742975,31.4801653 C379.658131,31.4801653 380.552475,31.6049574 381.426033,31.8545455 C382.299591,32.1041335 383.193935,32.3953151 384.109091,32.7280992 L384.109091,51.5719008 L380.864463,51.5719008 L376.247107,40.8396694 C374.583187,40.8396694 372.856896,41.1724485 371.068182,41.8380165 C369.279468,42.5035846 367.65717,43.481123 366.20124,44.7706612 C364.74531,46.0601993 363.559784,47.620101 362.644628,49.4504132 C361.729472,51.2807254 361.271901,53.4021918 361.271901,55.814876 L361.271901,87.1380165 L374.5,91.7553719 L374.5,95 L339.932231,95 L339.932231,91.7553719 L350.91405,87.2628099 L350.91405,42.0876033 L339.433058,38.7181818 L339.433058,35.8479339 L361.271901,30.731405 L361.271901,43.7099174 Z M425.790083,87.6371901 C423.460594,90.2994623 420.943953,92.4209287 418.240083,94.0016529 C415.536212,95.582377 412.312415,96.3727273 408.568595,96.3727273 C403.077658,96.3727273 398.751531,94.7504294 395.590083,91.5057851 C392.428634,88.2611408 390.847934,83.8518185 390.847934,78.277686 C390.847934,73.8682975 392.033459,70.3117215 394.404545,67.6078512 C396.775632,64.903981 399.729046,62.8033133 403.264876,61.3057851 C406.800706,59.808257 410.606867,58.7475238 414.683471,58.1235537 C418.760075,57.4995837 422.50384,57.0212138 425.914876,56.6884298 C425.83168,56.6884298 425.810881,56.2932546 425.852479,55.5028926 C425.894077,54.7125305 425.914876,53.8597842 425.914876,52.9446281 L425.914876,49.2008264 C425.914876,47.7032983 425.561298,46.3305848 424.854132,45.0826446 C424.146966,43.8347045 423.231824,42.7323739 422.108678,41.7756198 C420.985532,40.8188657 419.696013,40.0701129 418.240083,39.5293388 C416.784153,38.9885648 415.307446,38.7181818 413.809917,38.7181818 C411.147645,38.7181818 408.797393,38.9261687 406.759091,39.3421488 C404.720789,39.7581288 402.620121,40.7148685 400.457025,42.2123967 L395.964463,52.9446281 L392.719835,52.9446281 L392.719835,38.7181818 L392.844628,38.7181818 C394.758136,37.3038497 396.546824,36.0975257 398.210744,35.0991736 C399.874664,34.1008215 401.600955,33.2896725 403.389669,32.6657025 C405.178384,32.0417324 407.091863,31.5841612 409.130165,31.2929752 C411.168467,31.0017892 413.518719,30.8561983 416.180992,30.8561983 C418.676872,30.8561983 421.110319,31.2513735 423.481405,32.0417355 C425.852491,32.8320976 427.953159,33.9552269 429.783471,35.411157 C431.613783,36.8670872 433.069692,38.6141771 434.15124,40.6524793 C435.232788,42.6907815 435.731956,44.9162414 435.64876,47.3289256 L435.64876,85.0165289 L446.006612,88.3859504 L446.006612,91.2561983 L425.790083,96.4975207 L425.790083,87.6371901 Z M425.790083,63.4272727 C423.211006,63.5936647 420.465579,63.8640477 417.553719,64.2384298 C414.641859,64.6128118 411.958828,65.2991686 409.504545,66.2975207 C407.050263,67.2958728 405.011992,68.7309824 403.389669,70.6028926 C401.767347,72.4748027 400.956198,74.9914442 400.956198,78.1528926 C400.956198,81.6471249 401.892139,84.3301559 403.76405,86.2020661 C405.63596,88.0739763 408.277393,89.0099174 411.68843,89.0099174 C413.185958,89.0099174 414.600269,88.7395344 415.931405,88.1987603 C417.262541,87.6579863 418.510462,86.9716295 419.675207,86.1396694 C420.839951,85.3077093 421.921483,84.3509696 422.919835,83.2694215 C423.918187,82.1878734 424.874927,81.1063415 425.790083,80.0247934 L425.790083,63.4272727 Z M465.84876,90.3826446 C464.684016,90.1330566 463.311303,89.8418749 461.730579,89.5090909 C460.149854,89.1763069 458.63155,88.697937 457.17562,88.0739669 C455.71969,87.4499969 454.471768,86.6596467 453.431818,85.7028926 C452.391868,84.7461385 451.830303,83.4774184 451.747107,81.8966942 C451.663911,80.3991661 452.079885,78.9848551 452.995041,77.653719 C453.910197,76.3225829 455.012528,75.1370575 456.302066,74.0971074 C457.591604,73.0571573 458.943519,72.1212163 460.357851,71.2892562 C461.772183,70.4572961 462.978507,69.7501407 463.97686,69.1677686 C461.647371,67.3374564 459.817087,65.0496005 458.48595,62.3041322 C457.154814,59.558664 456.406061,56.2724709 456.239669,52.4454545 C456.073277,49.2008102 456.551647,46.2473962 457.674793,43.585124 C458.79794,40.9228517 460.37864,38.6349958 462.416942,36.7214876 C464.455244,34.8079794 466.805496,33.3104737 469.467769,32.2289256 C472.130041,31.1473775 474.958663,30.6066116 477.953719,30.6066116 C479.201659,30.6066116 480.61597,30.710605 482.196694,30.918595 C483.777418,31.1265851 485.441314,31.5217602 487.18843,32.1041322 L506.905785,30.2322314 L506.905785,34.4752066 L496.547934,39.2173554 C497.712678,40.6316875 498.690216,42.3579788 499.480579,44.396281 C500.270941,46.4345832 500.74931,49.0344195 500.915702,52.1958678 C500.998898,55.4405121 500.478931,58.3731274 499.355785,60.9938017 C498.232639,63.6144759 496.672737,65.8607344 494.676033,67.7326446 C492.679329,69.6045548 490.329077,71.0604631 487.625207,72.1004132 C484.921336,73.1403633 482.030318,73.6603306 478.952066,73.6603306 C476.78897,73.6603306 474.833893,73.4523437 473.086777,73.0363636 C471.339661,72.6203836 469.842155,72.2044098 468.594215,71.7884298 C468.178235,72.0380178 467.658268,72.3915955 467.034298,72.8491736 C466.410327,73.3067516 465.807165,73.8059202 465.224793,74.3466942 C464.642421,74.8874683 464.143253,75.511429 463.727273,76.218595 C463.311293,76.9257611 463.103306,77.6953126 463.103306,78.5272727 C463.103306,79.4424288 463.35289,80.170383 463.852066,80.711157 C464.351242,81.2519311 465.266385,81.7095023 466.597521,82.0838843 C467.928657,82.4582663 469.738143,82.8326428 472.026033,83.2070248 C474.313923,83.5814068 477.288136,84.0597767 480.94876,84.6421488 C483.943817,85.1413248 486.876432,85.7652855 489.746694,86.5140496 C492.616957,87.2628137 495.195994,88.3443455 497.483884,89.7586777 C499.771775,91.1730098 501.664455,92.9616972 503.161983,95.1247934 C504.659512,97.2878896 505.491459,100.033317 505.657851,103.361157 C505.824243,107.687349 505.013094,111.389516 503.22438,114.467769 C501.435666,117.546021 499.106213,120.041864 496.23595,121.955372 C493.365688,123.86888 490.183489,125.283191 486.689256,126.198347 C483.195024,127.113503 479.784039,127.571074 476.456198,127.571074 C473.71073,127.571074 470.819712,127.383886 467.783058,127.009504 C464.746404,126.635122 461.93858,125.803174 459.359504,124.513636 C456.780428,123.224098 454.617364,121.352216 452.870248,118.897934 C451.123132,116.443652 450.166392,113.095063 450,108.852066 C449.833608,106.106598 450.415971,103.673151 451.747107,101.551653 C453.078244,99.4301547 454.638145,97.6206686 456.42686,96.1231405 C458.215574,94.6256123 460.004261,93.3984896 461.792975,92.4417355 C463.581689,91.4849814 464.933604,90.7986247 465.84876,90.3826446 L465.84876,90.3826446 Z M495.050413,105.357851 C494.551237,102.362795 493.594497,100.05414 492.180165,98.4318182 C490.765833,96.809496 489.101938,95.603172 487.18843,94.8128099 C485.274922,94.0224478 483.111858,93.4400845 480.699174,93.0657025 C478.286489,92.6913204 475.832244,92.2129506 473.336364,91.6305785 C471.755639,92.4625386 470.15414,93.3984796 468.531818,94.4384298 C466.909496,95.4783799 465.453588,96.6847039 464.16405,98.057438 C462.874511,99.4301722 461.834577,100.969275 461.044215,102.674793 C460.253853,104.380312 459.900275,106.356187 459.983471,108.602479 C460.066667,111.09836 460.586634,113.136631 461.543388,114.717355 C462.500143,116.29808 463.727265,117.525202 465.224793,118.39876 C466.722322,119.272318 468.365418,119.854682 470.154132,120.145868 C471.942846,120.437054 473.752332,120.582645 475.582645,120.582645 C477.662545,120.582645 479.867206,120.291463 482.196694,119.709091 C484.526182,119.126719 486.668448,118.232375 488.623554,117.026033 C490.57866,115.819691 492.15936,114.259789 493.365702,112.346281 C494.572045,110.432773 495.133609,108.10332 495.050413,105.357851 L495.050413,105.357851 Z M490.807438,52.1958678 C490.724242,50.6983396 490.495456,49.0968405 490.121074,47.3913223 C489.746692,45.6858041 489.101933,44.1259024 488.186777,42.7115702 C487.271621,41.2972381 486.044498,40.1117128 484.505372,39.1549587 C482.966246,38.1982046 480.948773,37.7198347 478.452893,37.7198347 C476.456188,37.7198347 474.6883,38.1150098 473.149174,38.9053719 C471.610047,39.695734 470.320529,40.7772659 469.280579,42.15 C468.240628,43.5227341 467.471077,45.1242333 466.971901,46.9545455 C466.472725,48.7848576 466.264738,50.7399345 466.347934,52.8198347 C466.43113,54.5669509 466.74311,56.2724435 467.283884,57.9363636 C467.824658,59.6002838 468.615009,61.0769908 469.654959,62.3665289 C470.694909,63.6560671 471.94283,64.6960016 473.39876,65.4863636 C474.85469,66.2767257 476.539384,66.6719008 478.452893,66.6719008 C482.862281,66.6719008 486.065279,65.2991873 488.061983,62.553719 C490.058688,59.8082507 490.97383,56.3556682 490.807438,52.1958678 L490.807438,52.1958678 Z M521.506612,63.8016529 C521.423416,67.1294932 521.652201,70.2492967 522.192975,73.161157 C522.733749,76.0730173 523.648892,78.6312562 524.93843,80.8359504 C526.227968,83.0406446 527.975058,84.7877346 530.179752,86.0772727 C532.384446,87.3668109 535.109075,88.0115702 538.353719,88.0115702 C541.847951,88.0115702 545.175742,87.3668109 548.33719,86.0772727 C551.498638,84.7877346 554.285663,82.9366512 556.698347,80.5239669 L562.189256,85.8900826 C558.944612,89.134727 555.492029,91.6929658 551.831405,93.564876 C548.170781,95.4367862 543.969445,96.3727273 539.227273,96.3727273 C534.152316,96.3727273 529.846987,95.519981 526.311157,93.8144628 C522.775327,92.1089446 519.884309,89.80029 517.638017,86.8884298 C515.391724,83.9765695 513.769426,80.5655843 512.771074,76.6553719 C511.772722,72.7451595 511.273554,68.5438241 511.273554,64.0512397 C511.273554,59.9746353 511.855917,56.0020855 513.020661,52.1334711 C514.185405,48.2648567 515.932495,44.7914754 518.261983,41.7132231 C520.591472,38.6349708 523.420094,36.1599267 526.747934,34.2880165 C530.075774,32.4161063 533.944331,31.4801653 538.353719,31.4801653 C542.929499,31.4801653 546.818855,32.2705155 550.021901,33.8512397 C553.224947,35.4319638 555.845582,37.5326315 557.883884,40.1533058 C559.922187,42.77398 561.398893,45.7689914 562.31405,49.1384298 C563.229206,52.5078681 563.686777,55.939652 563.686777,59.4338843 L563.686777,63.8016529 L521.506612,63.8016529 Z M554.077686,56.438843 C554.160882,54.1093547 553.890499,51.9254923 553.266529,49.8871901 C552.642559,47.8488879 551.644222,46.0809992 550.271488,44.5834711 C548.898753,43.0859429 547.193261,41.9004176 545.154959,41.0268595 C543.116656,40.1533014 540.766404,39.7165289 538.104132,39.7165289 C535.44186,39.7165289 533.174803,40.1948988 531.302893,41.1516529 C529.430982,42.108407 527.871081,43.3563284 526.62314,44.8954545 C525.3752,46.4345807 524.397662,48.223268 523.690496,50.2615702 C522.98333,52.2998725 522.421765,54.3589428 522.005785,56.438843 L554.077686,56.438843 Z M592.014876,88.7603306 C592.014876,91.5057989 591.432513,93.440077 590.267769,94.5632231 C589.103024,95.6863693 587.147948,96.2479339 584.402479,96.2479339 C581.490619,96.2479339 579.431549,95.6655706 578.225207,94.5008264 C577.018864,93.3360823 576.415702,91.4226028 576.415702,88.7603306 C576.415702,86.0980583 577.018864,84.1845788 578.225207,83.0198347 C579.431549,81.8550906 581.449022,81.2727273 584.277686,81.2727273 C587.023154,81.2727273 588.99903,81.8550906 590.205372,83.0198347 C591.411714,84.1845788 592.014876,86.0980583 592.014876,88.7603306 L592.014876,88.7603306 Z M602.996694,34.9743802 L625.085124,29.8578512 L625.085124,87.1380165 L635.442975,91.7553719 L635.442975,95 L603.745455,95 L603.745455,91.7553719 L614.727273,87.1380165 L614.727273,41.2140496 L602.996694,37.8446281 L602.996694,34.9743802 Z M627.955372,10.0157025 C627.955372,14.6746789 625.376334,17.0041322 620.218182,17.0041322 C614.976833,17.0041322 612.356198,14.7578737 612.356198,10.2652893 C612.356198,5.6895088 614.976833,3.40165289 620.218182,3.40165289 C625.376334,3.40165289 627.955372,5.60631404 627.955372,10.0157025 L627.955372,10.0157025 Z M700.585124,63.9264463 C700.585124,68.3358347 699.919566,72.4955727 698.58843,76.4057851 C697.257294,80.3159975 695.343814,83.7477814 692.847934,86.7012397 C690.352054,89.654698 687.315445,92.0049499 683.738017,93.7520661 C680.160588,95.4991823 676.084045,96.3727273 671.508264,96.3727273 C666.5997,96.3727273 662.273572,95.5407797 658.529752,93.8768595 C654.785932,92.2129393 651.666128,89.9250834 649.170248,87.0132231 C646.674368,84.1013629 644.802486,80.669579 643.554545,76.7177686 C642.306605,72.7659582 641.682645,68.5022267 641.682645,63.9264463 C641.682645,59.6002539 642.3898,55.4821132 643.804132,51.5719008 C645.218464,47.6616884 647.235937,44.2091059 649.856612,41.2140496 C652.477286,38.2189933 655.638687,35.8479426 659.340909,34.1008264 C663.043131,32.3537103 667.182071,31.4801653 671.757851,31.4801653 C676.666416,31.4801653 680.930147,32.3121129 684.549174,33.9760331 C688.1682,35.6399532 691.163211,37.9278091 693.534298,40.8396694 C695.905384,43.7515297 697.673272,47.1833136 698.838017,51.135124 C700.002761,55.0869344 700.585124,59.3506658 700.585124,63.9264463 L700.585124,63.9264463 Z M689.728099,63.9264463 C689.728099,61.097782 689.436918,58.2067641 688.854545,55.2533058 C688.272173,52.2998475 687.273836,49.6168165 685.859504,47.2041322 C684.445172,44.791448 682.57329,42.8363711 680.243802,41.338843 C677.914313,39.8413148 675.044094,39.092562 671.633058,39.092562 C668.222022,39.092562 665.331004,39.8413148 662.959917,41.338843 C660.588831,42.8363711 658.612956,44.791448 657.032231,47.2041322 C655.451507,49.6168165 654.307579,52.2998475 653.600413,55.2533058 C652.893247,58.2067641 652.539669,61.097782 652.539669,63.9264463 C652.539669,66.8383066 652.893247,69.7709219 653.600413,72.7243802 C654.307579,75.6778385 655.40991,78.3400708 656.907438,80.711157 C658.404966,83.0822433 660.360043,85.0165214 662.772727,86.5140496 C665.185412,88.0115777 668.138826,88.7603306 671.633058,88.7603306 C674.960898,88.7603306 677.768721,88.0115777 680.056612,86.5140496 C682.344502,85.0165214 684.216384,83.0822433 685.672314,80.711157 C687.128244,78.3400708 688.168179,75.6778385 688.792149,72.7243802 C689.416119,69.7709219 689.728099,66.8383066 689.728099,63.9264463 L689.728099,63.9264463 Z" id="anch--rage.io" fill="#EDF6FB" sketch:type="MSShapeGroup"></path>
            </g>
        </g>
    </g>
</svg>
