<?xml version="1.0" encoding="UTF-8" standalone="no"?>
<svg width="400px" height="90px" viewBox="0 0 400 90" version="1.1" xmlns="http://www.w3.org/2000/svg" xmlns:xlink="http://www.w3.org/1999/xlink" xmlns:sketch="http://www.bohemiancoding.com/sketch/ns">
    <!-- Generator: Sketch 3.2.2 (9983) - http://www.bohemiancoding.com/sketch -->
    <title>FinalLogo</title>
    <desc>Created with Sketch.</desc>
    <defs></defs>
    <g id="Page-1" stroke="none" stroke-width="1" fill="none" fill-rule="evenodd" sketch:type="MSPage">
        <g id="FinalLogo" sketch:type="MSLayerGroup">
            <rect id="Rectangle-1" fill="#FFFFFF" sketch:type="MSShapeGroup" x="0" y="0" width="400" height="90"></rect>
            <g id="Group-4" transform="translate(17.000000, 17.000000)" sketch:type="MSShapeGroup">
                <g id="diode.io" transform="translate(150.708171, 0.685337)" fill="#4A4A4A">
                    <path d="M24.5181538,0.755076923 C22.5243077,0.755076923 20.9956923,1.68553846 20.9956923,3.01476923 L20.9956923,24.1495385 C19.5335385,21.5575385 16.5427692,19.0984615 12.3556923,19.0984615 C5.84246154,19.0984615 0.459076923,25.0135385 0.459076923,32.1913846 L0.459076923,38.3058462 C0.459076923,45.2178462 5.90892308,51.5316923 12.1563077,51.5316923 C16.3433846,51.5316923 19.9987692,49.0726154 21.328,46.3476923 L21.328,48.6738462 C21.328,49.8036923 22.7901538,51 24.5181538,51 C26.512,51 27.9741538,49.8036923 27.9741538,48.6738462 L27.9741538,3.01476923 C27.9741538,1.68553846 26.512,0.755076923 24.5181538,0.755076923 L24.5181538,0.755076923 Z M7.43753846,32.1913846 C7.43753846,28.7353846 10.4947692,25.2793846 14.2166154,25.2793846 C17.5396923,25.2793846 20.9956923,27.8713846 20.9956923,32.1913846 L20.9956923,39.8344615 C20.9956923,41.4295385 18.0049231,45.3507692 14.1501538,45.3507692 C10.4947692,45.3507692 7.43753846,41.8947692 7.43753846,38.3058462 L7.43753846,32.1913846 Z M38.8073846,19.4972308 C36.8135385,19.4972308 35.3513846,20.4276923 35.3513846,21.7569231 L35.3513846,48.6738462 C35.3513846,49.8036923 36.8135385,51 38.8073846,51 C40.8012308,51 42.3298462,49.8036923 42.3298462,48.6738462 L42.3298462,21.7569231 C42.3298462,20.4276923 40.8012308,19.4972308 38.8073846,19.4972308 L38.8073846,19.4972308 Z M38.8073846,4.27753846 C36.5476923,4.27753846 34.7532308,5.93907692 34.7532308,7.93292308 C34.7532308,9.86030769 36.5476923,11.5883077 38.8073846,11.5883077 C41.0670769,11.5883077 42.8615385,9.86030769 42.8615385,7.93292308 C42.8615385,5.93907692 41.0670769,4.27753846 38.8073846,4.27753846 L38.8073846,4.27753846 Z M62.1353846,19.0984615 C54.5587692,19.0984615 48.3778462,25.2129231 48.3778462,32.1913846 L48.3778462,38.3058462 C48.3778462,45.2843077 54.7581538,51.5316923 62.1353846,51.5316923 C69.4461538,51.5316923 75.8929231,45.2178462 75.8929231,38.3058462 L75.8929231,32.1913846 C75.8929231,25.0135385 69.4461538,19.0984615 62.1353846,19.0984615 L62.1353846,19.0984615 Z M68.9144615,38.3058462 C68.9144615,41.8947692 65.8572308,45.3507692 62.1353846,45.3507692 C58.3470769,45.3507692 55.3563077,41.8947692 55.3563077,38.3058462 L55.3563077,32.1913846 C55.3563077,28.7353846 58.3470769,25.2793846 62.1353846,25.2793846 C65.8572308,25.2793846 68.9144615,28.7353846 68.9144615,32.1913846 L68.9144615,38.3058462 Z M104.870154,0.755076923 C102.876308,0.755076923 101.347692,1.68553846 101.347692,3.01476923 L101.347692,24.1495385 C99.8855385,21.5575385 96.8947692,19.0984615 92.7076923,19.0984615 C86.1944615,19.0984615 80.8110769,25.0135385 80.8110769,32.1913846 L80.8110769,38.3058462 C80.8110769,45.2178462 86.2609231,51.5316923 92.5083077,51.5316923 C96.6953846,51.5316923 100.350769,49.0726154 101.68,46.3476923 L101.68,48.6738462 C101.68,49.8036923 103.142154,51 104.870154,51 C106.864,51 108.326154,49.8036923 108.326154,48.6738462 L108.326154,3.01476923 C108.326154,1.68553846 106.864,0.755076923 104.870154,0.755076923 L104.870154,0.755076923 Z M87.7895385,32.1913846 C87.7895385,28.7353846 90.8467692,25.2793846 94.5686154,25.2793846 C97.8916923,25.2793846 101.347692,27.8713846 101.347692,32.1913846 L101.347692,39.8344615 C101.347692,41.4295385 98.3569231,45.3507692 94.5021538,45.3507692 C90.8467692,45.3507692 87.7895385,41.8947692 87.7895385,38.3058462 L87.7895385,32.1913846 Z M128.331077,19.0984615 C120.688,19.0984615 114.507077,25.0135385 114.507077,31.992 L114.507077,38.3058462 C114.507077,46.2147692 120.887385,51.5316923 129.926154,51.5316923 C136.638769,51.5316923 140.958769,48.4744615 140.958769,46.4806154 C140.958769,45.2843077 139.895385,43.3569231 138.233846,43.3569231 C136.439385,43.3569231 134.844308,45.8824615 130.125538,45.8824615 C125.008,45.8824615 121.485538,43.0910769 121.485538,38.6381538 L121.485538,37.1095385 L135.508923,37.1095385 C138.499692,37.1095385 141.556923,36.9101538 141.556923,31.3938462 C141.556923,24.1495385 135.442462,19.0984615 128.331077,19.0984615 L128.331077,19.0984615 Z M121.485538,32.7895385 L121.485538,30.6627692 C121.485538,27.0073846 124.609231,24.4153846 128.264615,24.4153846 C132.052923,24.4153846 134.977231,27.2732308 134.977231,30.7956923 C134.977231,32.3907692 134.445538,32.7895385 132.518154,32.7895385 L121.485538,32.7895385 Z" id="diode"></path>
                </g>
                <g id="CODE" transform="translate(0.000000, 0.171213)" fill="#B8E986">
                    <path d="M19.7379426,57.0787222 C11.8474616,49.3871609 8.46582689,41.5629865 8.46582689,31.0865495 C8.46582689,20.6101126 11.8474616,12.7859382 19.7379426,5.09437689 L14.3008044,0.784450299 C5.68095125,8.40970503 0.310119655,18.6209157 0.310119655,31.0865495 C0.310119655,43.5521834 5.68095125,53.763394 14.3008044,61.3886488 L19.7379426,57.0787222 Z" id="("></path>
                    <path d="M22.687062,31.6888724 C22.687062,46.2099841 31.9699645,53.8352254 43.1094474,53.8352254 C48.546576,53.8352254 53.1880272,51.6471127 56.7685753,47.4698066 L51.3977531,41.5685329 C49.2759469,43.8892585 46.8226084,45.4143067 43.7062054,45.4143067 C37.2081737,45.4143067 32.6993354,40.242404 32.6993354,31.3573402 C32.6993354,22.6711958 37.2081737,17.4329866 43.3083667,17.4329866 C46.4247697,17.4329866 48.6791889,18.692809 50.7346887,20.5493895 L56.1055108,14.5155029 C53.1880272,11.6643258 48.8118017,9.01206792 43.3083667,9.01206792 C31.7710451,9.01206792 22.687062,17.3666801 22.687062,31.6888724 L22.687062,31.6888724 Z" id="C"></path>
                    <path d="M66.793301,53.8352254 C77.0708002,53.8352254 84.1655899,45.3480003 84.1655899,31.2247273 C84.1655899,17.1677608 77.0708002,9.01206792 66.793301,9.01206792 C56.5158019,9.01206792 49.4210122,17.1014543 49.4210122,31.2247273 C49.4210122,45.3480003 56.5158019,53.8352254 66.793301,53.8352254 L66.793301,53.8352254 Z M66.793301,45.4143067 C62.2844627,45.4143067 59.4332855,39.9108717 59.4332855,31.2247273 C59.4332855,22.6048893 62.2844627,17.4329866 66.793301,17.4329866 C71.3021394,17.4329866 74.1533165,22.6048893 74.1533165,31.2247273 C74.1533165,39.9108717 71.3021394,45.4143067 66.793301,45.4143067 L66.793301,45.4143067 Z" id="O"></path>
                    <path d="M82.7872673,53.039548 L95.0539598,53.039548 C107.055427,53.039548 115.343732,46.0773712 115.343732,31.2247273 C115.343732,16.3720834 107.055427,9.80774528 94.5235082,9.80774528 L82.7872673,9.80774528 L82.7872673,53.039548 Z M92.6006213,45.149081 L92.6006213,17.6982123 L93.9930567,17.6982123 C100.756314,17.6982123 105.331459,20.8809217 105.331459,31.2247273 C105.331459,41.5685329 100.756314,45.149081 93.9930567,45.149081 L92.6006213,45.149081 Z" id="D"></path>
                    <path d="M114.428725,53.039548 L143.603561,53.039548 L143.603561,44.8175487 L124.175772,44.8175487 L124.175772,34.8715818 L140.089319,34.8715818 L140.089319,26.715889 L124.175772,26.715889 L124.175772,18.0297446 L142.940496,18.0297446 L142.940496,9.80774528 L114.428725,9.80774528 L114.428725,53.039548 Z" id="E"></path>
                </g>
            </g>
            <path d="M319.681519,78.8914736 C328.301372,71.2662189 333.672203,61.0550082 333.672203,48.5893744 C333.672203,36.1237406 328.301372,25.9125299 319.681519,18.2872752 L314.24438,22.5972017 C322.134861,30.288763 325.516496,38.1129375 325.516496,48.5893744 C325.516496,59.0658113 322.134861,66.8899857 314.24438,74.581547 L319.681519,78.8914736 Z" id=")" fill="#B8E986" sketch:type="MSShapeGroup"></path>
            <path d="M342.446257,64.9715327 C340.851183,64.9715327 339.72134,66.2342993 339.72134,67.69645 C339.72134,69.1586007 340.851183,70.4213672 342.446257,70.4213672 C343.841946,70.4213672 345.104713,69.1586007 345.104713,67.69645 C345.104713,66.2342993 343.841946,64.9715327 342.446257,64.9715327 L342.446257,64.9715327 Z M353.877617,38.6528197 C352.947158,38.6528197 352.282544,39.1845109 352.282544,39.9820477 L352.282544,68.5604481 C352.282544,69.2915235 352.947158,70.0225989 353.877617,70.0225989 C354.808077,70.0225989 355.539152,69.2915235 355.539152,68.5604481 L355.539152,39.9820477 C355.539152,39.1845109 354.808077,38.6528197 353.877617,38.6528197 L353.877617,38.6528197 Z M353.877617,23.9648511 C352.415466,23.9648511 351.352084,25.0282335 351.352084,26.291 C351.352084,27.6202279 352.415466,28.7500717 353.877617,28.7500717 C355.206845,28.7500717 356.336689,27.6202279 356.336689,26.291 C356.336689,25.0282335 355.206845,23.9648511 353.877617,23.9648511 L353.877617,23.9648511 Z M375.211725,38.2540514 C368.565586,38.2540514 363.04929,43.9032701 363.04929,50.4164869 L363.04929,58.1260089 C363.04929,64.6392258 368.698509,70.4213672 375.211725,70.4213672 C381.724942,70.4213672 387.440622,64.5727644 387.440622,58.1260089 L387.440622,50.4164869 C387.440622,43.7038859 381.724942,38.2540514 375.211725,38.2540514 L375.211725,38.2540514 Z M384.184014,58.1260089 C384.184014,62.8447681 380.129869,67.364143 375.211725,67.364143 C370.227121,67.364143 366.305898,62.8447681 366.305898,58.1260089 L366.305898,50.4164869 C366.305898,45.8306506 370.227121,41.3112756 375.211725,41.3112756 C380.19633,41.3112756 384.184014,45.8306506 384.184014,50.4164869 L384.184014,58.1260089 Z" id=".io" fill="#9B9B9B" sketch:type="MSShapeGroup"></path>
        </g>
    </g>
</svg>