<?xml version="1.0" encoding="UTF-8" standalone="no"?>
<svg width="510px" height="510px" viewBox="0 0 510 510" version="1.1" xmlns="http://www.w3.org/2000/svg" xmlns:xlink="http://www.w3.org/1999/xlink" xmlns:sketch="http://www.bohemiancoding.com/sketch/ns">
    <!-- Generator: Sketch 3.2.2 (9983) - http://www.bohemiancoding.com/sketch -->
    <title>avatar</title>
    <desc>Created with Sketch.</desc>
    <defs></defs>
    <g id="Page-1" stroke="none" stroke-width="1" fill="none" fill-rule="evenodd" sketch:type="MSPage">
        <g id="avatar" sketch:type="MSLayerGroup">
            <g id="Group" sketch:type="MSShapeGroup">
                <path d="M255,0 C114.162,0 0,114.154 0,255 C0,395.823 114.162,510 255,510 C395.83,510 510,395.823 510,255 C510,114.154 395.83,0 255,0 L255,0 Z" id="Shape" fill="#EBEBEC"></path>
                <path d="M139.965,482.617 C148.983,487.193 158.308,491.243 167.898,494.72 L167.898,443.266 L139.965,443.266 L139.965,482.617 L139.965,482.617 Z M342.088,443.266 L342.088,494.736 C351.685,491.244 361.002,487.194 370.021,482.632 L370.021,443.266 L342.088,443.266 L342.088,443.266 Z" id="Shape" fill="#FFF5E5"></path>
                <path d="M323.119,367.355 L323.119,359.963 L307.614,359.963 C296.843,355.921 285.206,353.708 273.072,353.708 L236.92,353.708 C224.785,353.708 213.149,355.921 202.379,359.963 L186.873,359.963 L186.873,367.355 C157.879,384.389 138.173,415.716 137.615,451.492 L186.873,451.492 L186.873,500.771 C208.565,506.778 231.402,510 255,510 C278.59,510 301.434,506.778 323.119,500.771 L323.119,451.492 L372.376,451.492 C371.818,415.717 352.113,384.39 323.119,367.355 L323.119,367.355 Z" id="Shape" fill="#B0B1B7"></path>
                <path d="M137.052,235.911 C124.181,235.911 113.74,246.351 113.74,259.215 C113.74,272.102 124.18,282.534 137.052,282.534 C149.931,282.534 160.37,272.101 160.37,259.215 C160.37,246.352 149.931,235.911 137.052,235.911 L137.052,235.911 Z M372.934,235.911 C360.062,235.911 349.622,246.351 349.622,259.215 C349.622,272.102 360.061,282.534 372.934,282.534 C385.812,282.534 396.245,272.101 396.245,259.215 C396.244,246.352 385.812,235.911 372.934,235.911 L372.934,235.911 Z" id="Shape" fill="#FFF5E5"></path>
                <path d="M254.992,339.122 L221.61,372.497 L254.992,405.887 L288.375,372.497 L254.992,339.122 Z" id="Shape" fill="#FFF5E5"></path>
                <path d="M384.352,189.906 C384.352,172.82 378.225,157.3 368.357,146.039 C358.482,134.794 344.85,127.823 329.864,127.823 L180.121,127.823 C165.15,127.823 151.526,134.808 141.65,146.053 L141.634,146.038 C131.767,157.299 125.64,172.819 125.64,189.905 L146.204,311.436 C146.204,328.493 152.338,344.028 162.214,355.273 C172.089,366.534 185.713,373.519 200.692,373.519 L309.3,373.519 C324.294,373.519 337.918,366.534 347.793,355.289 L347.778,355.273 C357.653,344.028 363.788,328.493 363.788,311.436 L384.352,189.906 L384.352,189.906 Z" id="Shape" fill="#FFF5E5"></path>
                <path d="M333.229,127.929 C332.151,127.854 331.076,127.831 329.985,127.831 L180.098,127.831 C179.014,127.831 177.939,127.853 176.863,127.929 C128.185,129.284 116.278,108.028 102.616,103.165 C112.778,133.529 126.266,192.149 131.634,225.299 L378.459,225.299 C383.826,192.15 397.314,133.529 407.476,103.165 C393.813,108.027 381.897,129.284 333.229,127.929 L333.229,127.929 Z" id="Shape" fill="#B0B1B7"></path>
                <path d="M269.558,437.439 L269.558,471.718 L288.104,478.025 L307.629,471.718 L307.629,437.439 L269.558,437.439 Z" id="Shape" fill="#D0D1D2"></path>
                <rect id="Rectangle-path" fill="#F1F1F1" x="268.037" y="436.491" width="41.12" height="10.267"></rect>
                <path d="M279.568,179.429 L269.858,184.291 L275.157,186.022 C272.951,193.895 266.418,197.673 257.341,198.637 C256.897,187.331 257.815,176.282 257.371,165.398 L268.691,165.127 L268.699,165.104 C269.053,165.85 269.738,166.421 270.603,166.587 C272.063,166.858 273.471,165.909 273.749,164.449 C274.027,163.004 273.071,161.589 271.618,161.317 C270.308,161.061 269.037,161.814 268.593,163.018 L257.204,162.281 C257.114,161.016 257.009,159.737 256.873,158.472 C258.996,157.764 260.689,155.958 261.141,153.594 C261.811,150.117 259.531,146.744 256.045,146.082 C252.561,145.405 249.195,147.693 248.519,151.171 C247.916,154.347 249.753,157.418 252.711,158.442 L252.764,162.537 L242.753,163.274 L242.587,163.274 C242.241,162.506 241.533,161.897 240.638,161.739 C239.177,161.453 237.778,162.401 237.499,163.862 C237.213,165.322 238.169,166.715 239.621,167.008 C240.991,167.265 242.309,166.437 242.7,165.142 L252.808,165.639 L253.275,199.285 C245.327,198.577 238.944,195.055 235.556,186.128 L240.69,185.059 L230.875,180.663 L227.789,192.074 L232.373,187.754 C240.238,207.023 251.123,200.7 255.127,209.235 C260.592,201.739 276.3,199.707 278.159,187.226 L282.3,191.765 L279.568,179.429 L279.568,179.429 Z" id="Shape" fill="#FFFFFF"></path>
            </g>
        </g>
    </g>
</svg>