<?xml version="1.0" encoding="UTF-8" standalone="no"?>
<svg width="50px" height="50px" viewBox="0 0 50 50" version="1.1" xmlns="http://www.w3.org/2000/svg" xmlns:xlink="http://www.w3.org/1999/xlink" xmlns:sketch="http://www.bohemiancoding.com/sketch/ns">
    <!-- Generator: Sketch 3.2.2 (9983) - http://www.bohemiancoding.com/sketch -->
    <title>avatar</title>
    <desc>Created with Sketch.</desc>
    <defs></defs>
    <g id="Page-1" stroke="none" stroke-width="1" fill="none" fill-rule="evenodd" sketch:type="MSPage">
        <g id="avatar" sketch:type="MSLayerGroup">
            <g id="Group" sketch:type="MSShapeGroup">
                <path d="M25,0 C11.1923529,0 0,11.1915686 0,25 C0,38.8061765 11.1923529,50 25,50 C38.8068627,50 50,38.8061765 50,25 C50,11.1915686 38.8068627,0 25,0 L25,0 Z" id="Shape" fill="#EBEBEC"></path>
                <path d="M13.7220588,47.3153922 C14.6061765,47.7640196 15.5203922,48.1610784 16.4605882,48.5019608 L16.4605882,43.457451 L13.7220588,43.457451 L13.7220588,47.3153922 L13.7220588,47.3153922 Z M33.5380392,43.457451 L33.5380392,48.5035294 C34.4789216,48.1611765 35.3923529,47.7641176 36.2765686,47.3168627 L36.2765686,43.457451 L33.5380392,43.457451 L33.5380392,43.457451 Z" id="Shape" fill="#FFF5E5"></path>
                <path d="M31.6783333,36.0151961 L31.6783333,35.2904902 L30.1582353,35.2904902 C29.1022549,34.8942157 27.9613725,34.6772549 26.7717647,34.6772549 L23.227451,34.6772549 C22.0377451,34.6772549 20.8969608,34.8942157 19.8410784,35.2904902 L18.3208824,35.2904902 L18.3208824,36.0151961 C15.4783333,37.6851961 13.5463725,40.7564706 13.4916667,44.2639216 L18.3208824,44.2639216 L18.3208824,49.0951961 C20.447549,49.6841176 22.6864706,50 25,50 C27.3127451,50 29.5523529,49.6841176 31.6783333,49.0951961 L31.6783333,44.2639216 L36.507451,44.2639216 C36.4527451,40.7565686 34.5208824,37.6852941 31.6783333,36.0151961 L31.6783333,36.0151961 Z" id="Shape" fill="#B0B1B7"></path>
                <path d="M13.4364706,23.1285294 C12.1746078,23.1285294 11.1509804,24.1520588 11.1509804,25.4132353 C11.1509804,26.6766667 12.1745098,27.6994118 13.4364706,27.6994118 C14.6991176,27.6994118 15.722549,26.6765686 15.722549,25.4132353 C15.722549,24.1521569 14.6991176,23.1285294 13.4364706,23.1285294 L13.4364706,23.1285294 Z M36.5621569,23.1285294 C35.3001961,23.1285294 34.2766667,24.1520588 34.2766667,25.4132353 C34.2766667,26.6766667 35.300098,27.6994118 36.5621569,27.6994118 C37.8247059,27.6994118 38.847549,26.6765686 38.847549,25.4132353 C38.847451,24.1521569 37.8247059,23.1285294 36.5621569,23.1285294 L36.5621569,23.1285294 Z" id="Shape" fill="#FFF5E5"></path>
                <path d="M24.9992157,33.2472549 L21.7264706,36.5193137 L24.9992157,39.7928431 L28.2720588,36.5193137 L24.9992157,33.2472549 Z" id="Shape" fill="#FFF5E5"></path>
                <path d="M37.6815686,18.6182353 C37.6815686,16.9431373 37.0808824,15.4215686 36.1134314,14.317549 C35.1452941,13.215098 33.8088235,12.5316667 32.3396078,12.5316667 L17.6589216,12.5316667 C16.1911765,12.5316667 14.8554902,13.2164706 13.8872549,14.3189216 L13.8856863,14.317451 C12.9183333,15.4214706 12.3176471,16.9430392 12.3176471,18.6181373 L14.3337255,30.5329412 C14.3337255,32.2051961 14.935098,33.7282353 15.9033333,34.8306863 C16.8714706,35.9347059 18.2071569,36.6195098 19.6756863,36.6195098 L30.3235294,36.6195098 C31.7935294,36.6195098 33.1292157,35.9347059 34.0973529,34.8322549 L34.0958824,34.8306863 C35.0640196,33.7282353 35.6654902,32.2051961 35.6654902,30.5329412 L37.6815686,18.6182353 L37.6815686,18.6182353 Z" id="Shape" fill="#FFF5E5"></path>
                <path d="M32.6695098,12.5420588 C32.5638235,12.5347059 32.4584314,12.532451 32.3514706,12.532451 L17.6566667,12.532451 C17.5503922,12.532451 17.445,12.5346078 17.3395098,12.5420588 C12.5671569,12.674902 11.3998039,10.5909804 10.0603922,10.1142157 C11.0566667,13.0910784 12.3790196,18.8381373 12.9052941,22.0881373 L37.1038235,22.0881373 C37.63,18.8382353 38.9523529,13.0910784 39.9486275,10.1142157 C38.6091176,10.5908824 37.4408824,12.674902 32.6695098,12.5420588 L32.6695098,12.5420588 Z" id="Shape" fill="#B0B1B7"></path>
                <path d="M26.4272549,42.8861765 L26.4272549,46.2468627 L28.2454902,46.8651961 L30.1597059,46.2468627 L30.1597059,42.8861765 L26.4272549,42.8861765 Z" id="Shape" fill="#D0D1D2"></path>
                <rect id="Rectangle-path" fill="#F1F1F1" x="26.2781373" y="42.7932353" width="4.03137255" height="1.00656863"></rect>
                <path d="M27.4086275,17.5910784 L26.4566667,18.0677451 L26.9761765,18.237451 C26.759902,19.0093137 26.1194118,19.3797059 25.2295098,19.4742157 C25.1859804,18.3657843 25.2759804,17.282549 25.232451,16.2154902 L26.3422549,16.1889216 L26.3430392,16.1866667 C26.3777451,16.2598039 26.444902,16.3157843 26.5297059,16.3320588 C26.6728431,16.3586275 26.8108824,16.2655882 26.8381373,16.122451 C26.8653922,15.9807843 26.7716667,15.8420588 26.6292157,15.8153922 C26.5007843,15.7902941 26.3761765,15.8641176 26.3326471,15.9821569 L25.2160784,15.909902 C25.2072549,15.7858824 25.1969608,15.6604902 25.1836275,15.5364706 C25.3917647,15.4670588 25.5577451,15.29 25.6020588,15.0582353 C25.6677451,14.7173529 25.4442157,14.3866667 25.102451,14.3217647 C24.7608824,14.2553922 24.4308824,14.4797059 24.3646078,14.8206863 C24.3054902,15.1320588 24.4855882,15.4331373 24.7755882,15.5335294 L24.7807843,15.935 L23.7993137,16.0072549 L23.7830392,16.0072549 C23.7491176,15.9319608 23.6797059,15.8722549 23.5919608,15.8567647 C23.4487255,15.8287255 23.3115686,15.9216667 23.2842157,16.064902 C23.2561765,16.2080392 23.349902,16.3446078 23.4922549,16.3733333 C23.6265686,16.3985294 23.7557843,16.3173529 23.7941176,16.1903922 L24.785098,16.2391176 L24.8308824,19.5377451 C24.0516667,19.4683333 23.4258824,19.1230392 23.0937255,18.2478431 L23.5970588,18.1430392 L22.6348039,17.7120588 L22.3322549,18.8307843 L22.7816667,18.4072549 C23.5527451,20.2963725 24.619902,19.6764706 25.012451,20.5132353 C25.5482353,19.7783333 27.0882353,19.5791176 27.2704902,18.3554902 L27.6764706,18.8004902 L27.4086275,17.5910784 L27.4086275,17.5910784 Z" id="Shape" fill="#FFFFFF"></path>
            </g>
        </g>
    </g>
</svg>